<svg width="39" height="18" viewBox="0 0 39 18" fill="none" xmlns="http://www.w3.org/2000/svg">
<path d="M0.130156 17V0.799999H3.09016V14.96H7.01016V17H0.130156ZM10.6281 17V0.799999H13.5481V17H10.6281ZM22.1359 17.22C21.1626 17.22 20.3493 17.0333 19.6959 16.66C19.0426 16.2733 18.5493 15.7133 18.2159 14.98C17.8826 14.2467 17.6959 13.3467 17.6559 12.28L20.1959 11.78C20.2226 12.4067 20.2959 12.96 20.4159 13.44C20.5493 13.92 20.7426 14.2933 20.9959 14.56C21.2626 14.8133 21.6093 14.94 22.0359 14.94C22.5159 14.94 22.8559 14.8 23.0559 14.52C23.2559 14.2267 23.3559 13.86 23.3559 13.42C23.3559 12.7133 23.1959 12.1333 22.8759 11.68C22.5559 11.2267 22.1293 10.7733 21.5959 10.32L19.5559 8.52C18.9826 8.02667 18.5226 7.48 18.1759 6.88C17.8426 6.26667 17.6759 5.51333 17.6759 4.62C17.6759 3.34 18.0493 2.35333 18.7959 1.66C19.5426 0.966666 20.5626 0.619999 21.8559 0.619999C22.6159 0.619999 23.2493 0.739999 23.7559 0.979999C24.2626 1.20667 24.6626 1.52667 24.9559 1.94C25.2626 2.35333 25.4893 2.82667 25.6359 3.36C25.7826 3.88 25.8759 4.43333 25.9159 5.02L23.3959 5.46C23.3693 4.95333 23.3093 4.5 23.2159 4.1C23.1359 3.7 22.9826 3.38667 22.7559 3.16C22.5426 2.93333 22.2226 2.82 21.7959 2.82C21.3559 2.82 21.0159 2.96667 20.7759 3.26C20.5493 3.54 20.4359 3.89333 20.4359 4.32C20.4359 4.86667 20.5493 5.32 20.7759 5.68C21.0026 6.02667 21.3293 6.38667 21.7559 6.76L23.7759 8.54C24.4426 9.1 25.0093 9.76 25.4759 10.52C25.9559 11.2667 26.1959 12.1733 26.1959 13.24C26.1959 14.0133 26.0226 14.7 25.6759 15.3C25.3426 15.9 24.8693 16.3733 24.2559 16.72C23.6559 17.0533 22.9493 17.22 22.1359 17.22ZM29.0406 17L32.2806 0.799999H35.4406L38.6806 17H35.9406L35.3006 13.26H32.4806L31.8206 17H29.0406ZM32.7806 11.38H34.9806L33.8806 4.58L32.7806 11.38Z" fill="black"/>
</svg>
