<svg width="47" height="13" viewBox="0 0 47 13" fill="none" xmlns="http://www.w3.org/2000/svg">
<path d="M1 8V12H5" stroke="black"/>
<path d="M1 6V2H5" stroke="black"/>
<path d="M18.494 12V10.947L21.588 2.523H18.689V1.47H23.148V2.107L19.885 10.947H23.148V12H18.494ZM26.9309 12.117C26.2202 12.117 25.6526 11.9783 25.2279 11.701C24.8032 11.4237 24.4999 11.0293 24.3179 10.518C24.1359 9.998 24.0449 9.39133 24.0449 8.698V4.707C24.0449 4.01367 24.1359 3.42 24.3179 2.926C24.5086 2.42333 24.8119 2.042 25.2279 1.782C25.6526 1.51333 26.2202 1.379 26.9309 1.379C27.6416 1.379 28.2049 1.51333 28.6209 1.782C29.0369 2.05067 29.3359 2.432 29.5179 2.926C29.7086 3.42 29.8039 4.01367 29.8039 4.707V8.711C29.8039 9.39567 29.7086 9.99367 29.5179 10.505C29.3359 11.0163 29.0369 11.415 28.6209 11.701C28.2049 11.9783 27.6416 12.117 26.9309 12.117ZM26.9309 10.96C27.3209 10.96 27.6156 10.882 27.8149 10.726C28.0142 10.5613 28.1486 10.336 28.2179 10.05C28.2872 9.75533 28.3219 9.413 28.3219 9.023V4.408C28.3219 4.018 28.2872 3.68433 28.2179 3.407C28.1486 3.121 28.0142 2.90433 27.8149 2.757C27.6156 2.601 27.3209 2.523 26.9309 2.523C26.5409 2.523 26.2419 2.601 26.0339 2.757C25.8346 2.90433 25.7002 3.121 25.6309 3.407C25.5616 3.68433 25.5269 4.018 25.5269 4.408V9.023C25.5269 9.413 25.5616 9.75533 25.6309 10.05C25.7002 10.336 25.8346 10.5613 26.0339 10.726C26.2419 10.882 26.5409 10.96 26.9309 10.96ZM33.9387 12.117C33.228 12.117 32.6604 11.9783 32.2357 11.701C31.811 11.4237 31.5077 11.0293 31.3257 10.518C31.1437 9.998 31.0527 9.39133 31.0527 8.698V4.707C31.0527 4.01367 31.1437 3.42 31.3257 2.926C31.5164 2.42333 31.8197 2.042 32.2357 1.782C32.6604 1.51333 33.228 1.379 33.9387 1.379C34.6494 1.379 35.2127 1.51333 35.6287 1.782C36.0447 2.05067 36.3437 2.432 36.5257 2.926C36.7164 3.42 36.8117 4.01367 36.8117 4.707V8.711C36.8117 9.39567 36.7164 9.99367 36.5257 10.505C36.3437 11.0163 36.0447 11.415 35.6287 11.701C35.2127 11.9783 34.6494 12.117 33.9387 12.117ZM33.9387 10.96C34.3287 10.96 34.6234 10.882 34.8227 10.726C35.022 10.5613 35.1564 10.336 35.2257 10.05C35.295 9.75533 35.3297 9.413 35.3297 9.023V4.408C35.3297 4.018 35.295 3.68433 35.2257 3.407C35.1564 3.121 35.022 2.90433 34.8227 2.757C34.6234 2.601 34.3287 2.523 33.9387 2.523C33.5487 2.523 33.2497 2.601 33.0417 2.757C32.8424 2.90433 32.708 3.121 32.6387 3.407C32.5694 3.68433 32.5347 4.018 32.5347 4.408V9.023C32.5347 9.413 32.5694 9.75533 32.6387 10.05C32.708 10.336 32.8424 10.5613 33.0417 10.726C33.2497 10.882 33.5487 10.96 33.9387 10.96ZM38.2295 12L38.4245 1.47H39.8675L41.7265 10.011L43.5985 1.47H45.0285L45.2235 12H44.0405L43.9235 4.356L42.1425 12H41.3105L39.5425 4.356L39.4255 12H38.2295Z" fill="black"/>
<path d="M7 2H11V6" stroke="black"/>
<path d="M11 8V12H7" stroke="black"/>
<path d="M1 2L11 12" stroke="black"/>
<path d="M11 2L1 12" stroke="black" stroke-width="1.4"/>
</svg>
